<svg xmlns="http://www.w3.org/2000/svg" width="256" height="256" viewBox="0 0 100 100"><path d="M23.19 77.52Q12.31 77.52 6.43 72.39Q0.54 67.25 0.61 56.97L0.61 56.97L12.84 56.97Q12.76 61.25 15.39 63.50Q18.01 65.75 22.74 65.75L22.74 65.75Q26.64 65.75 28.89 64.47Q31.14 63.20 31.14 60.57L31.14 60.57Q31.14 58.40 28.85 57.42Q26.56 56.45 24.31 56.04Q22.06 55.63 21.54 55.55L21.54 55.55Q15.76 54.42 11.56 52.81Q7.36 51.20 4.51 47.90Q1.66 44.60 1.66 39.20L1.66 39.20Q1.66 33.80 4.51 30.01Q7.36 26.23 12.13 24.35Q16.89 22.48 22.51 22.48L22.51 22.48Q29.34 22.48 34.33 25.02Q39.31 27.57 42.16 32.75L42.16 32.75Q43.59 35.23 43.89 37.51Q44.19 39.80 44.19 41.98L44.19 41.98L31.96 41.98Q31.96 37.92 29.79 36.01Q27.61 34.10 23.04 34.10L23.04 34.10Q19.36 34.10 17.34 35.38Q15.31 36.65 15.31 38.82L15.31 38.82Q15.31 41.23 18.01 42.35Q20.71 43.48 24.84 44.38L24.84 44.38Q31.59 45.72 35.38 46.96Q39.16 48.20 41.94 51.35Q44.71 54.50 44.71 60.20L44.71 60.20Q44.71 65.60 41.71 69.50Q38.71 73.40 33.80 75.46Q28.89 77.52 23.19 77.52L23.19 77.52ZM78.31 77.30Q72.61 77.30 67.78 74.45Q62.94 71.60 60.09 66.76Q57.24 61.92 57.24 56.22L57.24 56.22L57.24 23.98L99.39 23.98L99.39 56.22Q99.39 61.92 96.54 66.76Q93.69 71.60 88.85 74.45Q84.01 77.30 78.31 77.30L78.31 77.30Z" fill="#074084"></path></svg>